<svg width="33" height="33" viewBox="0 0 33 33" fill="none" xmlns="http://www.w3.org/2000/svg">
<g clip-path="url(#clip0_946_89387)">
<path d="M12.4961 16.8997H10.4961V14.8997H12.4961V16.8997ZM20.4961 16.8997H18.4961V14.8997H20.4961V16.8997ZM28.4961 14.8997V18.8997H26.4961V23.8997C26.4961 24.3164 26.418 24.707 26.2617 25.0716C26.1055 25.4362 25.8919 25.7539 25.6211 26.0247C25.3503 26.2956 25.0326 26.5091 24.668 26.6654C24.3034 26.8216 23.9128 26.8997 23.4961 26.8997H19.3711L12.4961 32.7747V26.8997H7.49609C7.07943 26.8997 6.6888 26.8216 6.32422 26.6654C5.95964 26.5091 5.64193 26.2956 5.37109 26.0247C5.10026 25.7539 4.88672 25.4362 4.73047 25.0716C4.57422 24.707 4.49609 24.3164 4.49609 23.8997V18.8997H2.49609V14.8997H4.49609V11.8997C4.49609 11.4831 4.57422 11.0924 4.73047 10.7279C4.88672 10.3633 5.10026 10.0456 5.37109 9.77474C5.64193 9.50391 5.95964 9.29036 6.32422 9.13411C6.6888 8.97786 7.07943 8.89974 7.49609 8.89974H14.4961V5.63411C14.194 5.45703 13.9544 5.21224 13.7773 4.89974C13.6003 4.58724 13.5065 4.25391 13.4961 3.89974C13.4961 3.61849 13.5482 3.35807 13.6523 3.11849C13.7565 2.87891 13.8971 2.67057 14.0742 2.49349C14.2513 2.31641 14.4648 2.17057 14.7148 2.05599C14.9648 1.94141 15.2253 1.88932 15.4961 1.89974C15.7773 1.89974 16.0378 1.95182 16.2773 2.05599C16.5169 2.16016 16.7253 2.30078 16.9023 2.47786C17.0794 2.65495 17.2253 2.86849 17.3398 3.11849C17.4544 3.36849 17.5065 3.62891 17.4961 3.89974C17.4961 4.25391 17.4076 4.58724 17.2305 4.89974C17.0534 5.21224 16.8086 5.45703 16.4961 5.63411V8.89974H23.4961C23.9128 8.89974 24.3034 8.97786 24.668 9.13411C25.0326 9.29036 25.3503 9.50391 25.6211 9.77474C25.8919 10.0456 26.1055 10.3633 26.2617 10.7279C26.418 11.0924 26.4961 11.4831 26.4961 11.8997V14.8997H28.4961ZM24.4961 11.8997C24.4961 11.6289 24.3971 11.3945 24.1992 11.1966C24.0013 10.9987 23.7669 10.8997 23.4961 10.8997H7.49609C7.22526 10.8997 6.99089 10.9987 6.79297 11.1966C6.59505 11.3945 6.49609 11.6289 6.49609 11.8997V23.8997C6.49609 24.1706 6.59505 24.4049 6.79297 24.6029C6.99089 24.8008 7.22526 24.8997 7.49609 24.8997H14.4961V28.431L18.6211 24.8997H23.4961C23.7669 24.8997 24.0013 24.8008 24.1992 24.6029C24.3971 24.4049 24.4961 24.1706 24.4961 23.8997V11.8997ZM11.1992 19.1185C11.7721 19.6914 12.4284 20.1289 13.168 20.431C13.9076 20.7331 14.6836 20.8893 15.4961 20.8997C16.3086 20.8997 17.0846 20.7487 17.8242 20.4466C18.5638 20.1445 19.2201 19.7018 19.793 19.1185L21.1992 20.5404C20.4388 21.3008 19.569 21.8841 18.5898 22.2904C17.6107 22.6966 16.5794 22.8997 15.4961 22.8997C14.4232 22.8997 13.3971 22.6966 12.418 22.2904C11.4388 21.8841 10.5638 21.3008 9.79297 20.5404L11.1992 19.1185Z" fill="white"/>
</g>
<defs>
<clipPath id="clip0_946_89387">
<rect width="32" height="32" fill="white" transform="translate(0.5 0.899902)"/>
</clipPath>
</defs>
</svg>
