<svg width="20" height="25" viewBox="0 0 20 25" fill="none" xmlns="http://www.w3.org/2000/svg">
<path d="M20 12.7109C20 18.2338 15.5228 22.7109 10 22.7109C4.47715 22.7109 0 18.2338 0 12.7109C0 7.18809 4.47715 2.71094 10 2.71094C15.5228 2.71094 20 7.18809 20 12.7109Z" fill="white"/>
<g clip-path="url(#clip0_1031_11733)">
<path d="M13.1331 19.3203C12.1544 19.7857 11.0838 20.026 10 20.0234C5.96802 20.0234 2.68752 16.7429 2.68752 12.7109C2.68752 10.9812 3.28208 9.34775 4.37502 8.03769V9.33594H5.50002V5.96094H2.12502V7.08594H3.72364C2.32897 8.62703 1.55848 10.6325 1.56252 12.7109C1.56252 17.3634 5.34758 21.1484 10 21.1484C11.2512 21.151 12.487 20.8735 13.6169 20.3362L13.1331 19.3203Z" fill="#297FB8"/>
<path d="M12.8125 8.77344C11.035 8.77344 9.57756 10.1555 9.44988 11.9009C8.83149 11.3367 8.02464 11.0237 7.1875 11.0234H4.9375V13.2734C4.9375 15.1348 6.45175 16.6484 8.3125 16.6484H9.4375V18.8984H10.5625V14.3984H11.6875C13.5483 14.3984 15.0625 12.8848 15.0625 11.0234V8.77344H12.8125ZM8.3125 15.5234C7.07162 15.5234 6.0625 14.5143 6.0625 13.2734V12.1484H7.1875C8.42838 12.1484 9.4375 13.1576 9.4375 14.3984V14.7281L8.14769 13.4382L7.35231 14.2336L8.64213 15.5234H8.3125ZM13.9375 11.0234C13.9375 12.2643 12.9284 13.2734 11.6875 13.2734H11.3579L12.6477 11.9836L11.8523 11.1883L10.5625 12.4781V12.1484C10.5625 10.9076 11.5716 9.89844 12.8125 9.89844H13.9375V11.0234Z" fill="#297FB8"/>
<path d="M18.4372 12.711C18.4372 8.05852 14.6521 4.27346 9.99969 4.27346C8.74855 4.27085 7.5127 4.54839 6.38281 5.08571L6.86656 6.10158C7.84532 5.63617 8.91591 5.39591 9.99969 5.39846C14.0317 5.39846 17.3122 8.67896 17.3122 12.711C17.3122 14.4406 16.7176 16.0741 15.6247 17.3842V16.086H14.4997V19.461H17.8747V18.336H16.2761C17.6707 16.7949 18.4412 14.7894 18.4372 12.711Z" fill="#297FB8"/>
</g>
<defs>
<clipPath id="clip0_1031_11733">
<rect width="18" height="18" fill="white" transform="translate(1 3.71094)"/>
</clipPath>
</defs>
</svg>
